<svg width="495" height="195" viewBox="0 0 495 195" fill="none" xmlns="http://www.w3.org/2000/svg" role="img" aria-label="Top Languages">
  <defs>
    <linearGradient id="card-bg" x1="16" y1="8" x2="480" y2="190" gradientUnits="userSpaceOnUse">
      <stop stop-color="#07111F"/>
      <stop offset="0.58" stop-color="#0B1F2E"/>
      <stop offset="1" stop-color="#07313A"/>
    </linearGradient>
    <linearGradient id="accent" x1="24" y1="0" x2="460" y2="0" gradientUnits="userSpaceOnUse">
      <stop stop-color="#36E4A2"/>
      <stop offset="1" stop-color="#37C8FF"/>
    </linearGradient>
    <pattern id="grid" width="28" height="28" patternUnits="userSpaceOnUse">
      <path d="M28 0H0V28" stroke="#8EE8DB" stroke-opacity="0.05"/>
    </pattern>
  </defs>
  <rect x="1" y="1" width="493" height="193" rx="15" fill="url(#card-bg)" stroke="#284B5D"/>
  <rect x="1" y="1" width="493" height="193" rx="15" fill="url(#grid)"/>
  <rect x="22" y="20" width="5" height="5" rx="2.5" fill="#36E4A2"/>
  <text x="38" y="28" fill="#F3F8FA" font-family="Arial, sans-serif" font-size="15" font-weight="700">Top Languages</text>
  <text x="472" y="28" fill="#7F9AA8" font-family="ui-monospace, SFMono-Regular, Menlo, monospace" font-size="10" text-anchor="end">PUBLIC SOURCE BYTES</text>
  <path d="M22 42H473" stroke="#284B5D"/>
  <rect x="22.00" y="58" width="247.83" height="10" fill="#F7DF1E"/>
  <rect x="269.83" y="58" width="133.75" height="10" fill="#3178C6"/>
  <rect x="403.58" y="58" width="29.83" height="10" fill="#A97BFF"/>
  <rect x="433.42" y="58" width="27.50" height="10" fill="#1572B6"/>
  <rect x="460.92" y="58" width="7.25" height="10" fill="#F05138"/>
  <rect x="468.16" y="58" width="4.84" height="10" fill="#DEA584"/>
  <g transform="translate(22 96)">
    <circle cx="5" cy="-4" r="5" fill="#F7DF1E"/>
    <text x="17" y="0" fill="#DCE8EE" font-family="Arial, sans-serif" font-size="12" font-weight="600">JavaScript</text>
    <text x="205" y="0" fill="#7F9AA8" font-family="ui-monospace, SFMono-Regular, Menlo, monospace" font-size="11" text-anchor="end">55.0%</text>
  </g>
  <g transform="translate(257 96)">
    <circle cx="5" cy="-4" r="5" fill="#3178C6"/>
    <text x="17" y="0" fill="#DCE8EE" font-family="Arial, sans-serif" font-size="12" font-weight="600">TypeScript</text>
    <text x="205" y="0" fill="#7F9AA8" font-family="ui-monospace, SFMono-Regular, Menlo, monospace" font-size="11" text-anchor="end">29.7%</text>
  </g>
  <g transform="translate(22 124)">
    <circle cx="5" cy="-4" r="5" fill="#A97BFF"/>
    <text x="17" y="0" fill="#DCE8EE" font-family="Arial, sans-serif" font-size="12" font-weight="600">Kotlin</text>
    <text x="205" y="0" fill="#7F9AA8" font-family="ui-monospace, SFMono-Regular, Menlo, monospace" font-size="11" text-anchor="end">6.6%</text>
  </g>
  <g transform="translate(257 124)">
    <circle cx="5" cy="-4" r="5" fill="#1572B6"/>
    <text x="17" y="0" fill="#DCE8EE" font-family="Arial, sans-serif" font-size="12" font-weight="600">CSS</text>
    <text x="205" y="0" fill="#7F9AA8" font-family="ui-monospace, SFMono-Regular, Menlo, monospace" font-size="11" text-anchor="end">6.1%</text>
  </g>
  <g transform="translate(22 152)">
    <circle cx="5" cy="-4" r="5" fill="#F05138"/>
    <text x="17" y="0" fill="#DCE8EE" font-family="Arial, sans-serif" font-size="12" font-weight="600">Swift</text>
    <text x="205" y="0" fill="#7F9AA8" font-family="ui-monospace, SFMono-Regular, Menlo, monospace" font-size="11" text-anchor="end">1.6%</text>
  </g>
  <g transform="translate(257 152)">
    <circle cx="5" cy="-4" r="5" fill="#DEA584"/>
    <text x="17" y="0" fill="#DCE8EE" font-family="Arial, sans-serif" font-size="12" font-weight="600">Rust</text>
    <text x="205" y="0" fill="#7F9AA8" font-family="ui-monospace, SFMono-Regular, Menlo, monospace" font-size="11" text-anchor="end">1.1%</text>
  </g>
</svg>